name rise42.5664peak47.7979fall81.9185.mot
datacolumns 19
datarows 23
range 7.07663700000000 7.11330800000000
endheader
time	ground_force1_vx	ground_force1_vy	ground_force1_vz	ground_force1_px	ground_force1_py	ground_force1_pz	ground_force2_vx	ground_force2_vy	ground_force2_vz	ground_force2_px	ground_force2_py	ground_force2_pz	ground_torque1_x	ground_torque1_y	ground_torque1_z	ground_torque2_x	ground_torque2_y	ground_torque2_z	
7.07663700000000	-5.68200100000000	41.54271700000000	-6.38665500000000	0.29078900000000	0.00000000000000	0.08070700000000	-47.55003000000000	790.94610299999999	-55.54504200000000	0.08588400000000	0.00000000000000	-0.09692600000000	0.00000000000000	-3.40485000000000	0.00000000000000	0.00000000000000	-17.29584200000000	0.00000000000000	
7.07830600000000	-6.21478000000000	48.73172700000000	-7.15148400000000	0.29224600000000	0.00000000000000	0.08178900000000	-48.43010900000000	788.55313100000001	-55.08308600000000	0.08502900000000	0.00000000000000	-0.09677900000000	0.00000000000000	-3.84414200000000	0.00000000000000	0.00000000000000	-17.30017900000000	0.00000000000000	
7.07997100000000	-6.63359700000000	56.02110700000000	-7.83515400000000	0.29366400000000	0.00000000000000	0.08275700000000	-49.32151500000000	786.00761199999999	-54.59534200000000	0.08417100000000	0.00000000000000	-0.09662900000000	0.00000000000000	-4.24959300000000	0.00000000000000	0.00000000000000	-17.30674200000000	0.00000000000000	
7.08163800000000	-6.92211300000000	63.31746800000000	-8.42053200000000	0.29505100000000	0.00000000000000	0.08362700000000	-50.22271300000000	783.30528600000002	-54.08191600000000	0.08331000000000	0.00000000000000	-0.09647700000000	0.00000000000000	-4.61225700000000	0.00000000000000	0.00000000000000	-17.31533300000000	0.00000000000000	
7.08330500000000	-7.07034900000000	70.54983400000000	-8.89639900000000	0.29641400000000	0.00000000000000	0.08441600000000	-51.13206800000000	780.44190500000002	-53.54295900000000	0.08244700000000	0.00000000000000	-0.09632100000000	0.00000000000000	-4.92605900000000	0.00000000000000	0.00000000000000	-17.32573100000000	0.00000000000000	
7.08497600000000	-7.07459700000000	77.67187400000000	-9.25748300000000	0.29775800000000	0.00000000000000	0.08513500000000	-52.04784600000000	777.41324899999995	-52.97866700000000	0.08158400000000	0.00000000000000	-0.09616200000000	0.00000000000000	-5.18785700000000	0.00000000000000	0.00000000000000	-17.33769200000000	0.00000000000000	
7.08664200000000	-6.93684400000000	84.66173499999999	-9.50402100000000	0.29908800000000	0.00000000000000	0.08579200000000	-52.96822100000000	774.21514000000002	-52.38928600000000	0.08072100000000	0.00000000000000	-0.09600000000000	0.00000000000000	-5.39726200000000	0.00000000000000	0.00000000000000	-17.35095200000000	0.00000000000000	
7.08830100000000	-6.66383100000000	91.51989100000000	-9.64093000000000	0.30040600000000	0.00000000000000	0.08639700000000	-53.89127900000000	770.84345399999995	-51.77510600000000	0.07985900000000	0.00000000000000	-0.09583500000000	0.00000000000000	-5.55625700000000	0.00000000000000	0.00000000000000	-17.36522800000000	0.00000000000000	
7.08997000000000	-6.26588300000000	98.26552700000001	-9.67674600000000	0.30171400000000	0.00000000000000	0.08695500000000	-54.81502100000000	767.29413999999997	-51.13646800000000	0.07899900000000	0.00000000000000	-0.09566700000000	0.00000000000000	-5.66869200000000	0.00000000000000	0.00000000000000	-17.38021400000000	0.00000000000000	
7.09164300000000	-5.75565500000000	104.93201500000001	-9.62244000000000	0.30301300000000	0.00000000000000	0.08747100000000	-55.73737100000000	763.56323399999997	-50.47375900000000	0.07814200000000	0.00000000000000	-0.09549500000000	0.00000000000000	-5.73970900000000	0.00000000000000	0.00000000000000	-17.39558900000000	0.00000000000000	
7.09330400000000	-5.14691000000000	111.56201600000000	-9.49025500000000	0.30430600000000	0.00000000000000	0.08795200000000	-56.65617800000000	759.64688100000001	-49.78741800000000	0.07729000000000	0.00000000000000	-0.09532000000000	0.00000000000000	-5.77516200000000	0.00000000000000	0.00000000000000	-17.41101100000000	0.00000000000000	
7.09496800000000	-4.45341400000000	118.20267200000001	-9.29262700000000	0.30559200000000	0.00000000000000	0.08839900000000	-57.56922900000000	755.54134999999997	-49.07793100000000	0.07644200000000	0.00000000000000	-0.09514200000000	0.00000000000000	-5.78107700000000	0.00000000000000	0.00000000000000	-17.42612300000000	0.00000000000000	
7.09664400000000	-3.68803600000000	124.90125000000000	-9.04128100000000	0.30687200000000	0.00000000000000	0.08881800000000	-58.47424900000000	751.24305400000003	-48.34583400000000	0.07560000000000	0.00000000000000	-0.09496000000000	0.00000000000000	-5.76318600000000	0.00000000000000	0.00000000000000	-17.44055400000000	0.00000000000000	
7.09830300000000	-2.86206200000000	131.70151100000001	-8.74653900000000	0.30814600000000	0.00000000000000	0.08921000000000	-59.36891200000000	746.74857199999997	-47.59171300000000	0.07476600000000	0.00000000000000	-0.09477400000000	0.00000000000000	-5.72656500000000	0.00000000000000	0.00000000000000	-17.45391500000000	0.00000000000000	
7.09997100000000	-1.98476500000000	138.64096000000001	-8.41685400000000	0.30941300000000	0.00000000000000	0.08957800000000	-60.25084600000000	742.05466799999999	-46.81620200000000	0.07394000000000	0.00000000000000	-0.09458500000000	0.00000000000000	-5.67538300000000	0.00000000000000	0.00000000000000	-17.46580900000000	0.00000000000000	
7.10164200000000	-1.06320000000000	145.74901100000000	-8.05856400000000	0.31067100000000	0.00000000000000	0.08992500000000	-61.11764300000000	737.15831300000002	-46.01998500000000	0.07312400000000	0.00000000000000	-0.09439300000000	0.00000000000000	-5.61275600000000	0.00000000000000	0.00000000000000	-17.47582600000000	0.00000000000000	
7.10330300000000	-0.10220800000000	153.04607400000000	-7.67585500000000	0.31192200000000	0.00000000000000	0.09025200000000	-61.96686600000000	732.05670399999997	-45.20379200000000	0.07231700000000	0.00000000000000	-0.09419600000000	0.00000000000000	-5.54071600000000	0.00000000000000	0.00000000000000	-17.48354600000000	0.00000000000000	
7.10497100000000	0.89541000000000	160.54343299999999	-7.27088200000000	0.31316200000000	0.00000000000000	0.09056100000000	-62.79605500000000	726.74728600000003	-44.36840500000000	0.07152200000000	0.00000000000000	-0.09399600000000	0.00000000000000	-5.46024900000000	0.00000000000000	0.00000000000000	-17.48854300000000	0.00000000000000	
7.10664200000000	1.92859300000000	168.24380800000000	-6.84403500000000	0.31439100000000	0.00000000000000	0.09085400000000	-63.60273800000000	721.22777099999996	-43.51464800000000	0.07073900000000	0.00000000000000	-0.09379300000000	0.00000000000000	-5.37142200000000	0.00000000000000	0.00000000000000	-17.49038300000000	0.00000000000000	
7.10830400000000	2.99764100000000	176.14240599999999	-6.39427100000000	0.31560800000000	0.00000000000000	0.09113100000000	-64.38444000000000	715.49616000000003	-42.64339500000000	0.06997000000000	0.00000000000000	-0.09358500000000	0.00000000000000	-5.27354200000000	0.00000000000000	0.00000000000000	-17.48863100000000	0.00000000000000	
7.10997100000000	4.10380000000000	184.22832199999999	-5.91951000000000	0.31681000000000	0.00000000000000	0.09139400000000	-65.13868600000001	709.55075399999998	-41.75556200000000	0.06921400000000	0.00000000000000	-0.09337400000000	0.00000000000000	-5.16535000000000	0.00000000000000	0.00000000000000	-17.48284700000000	0.00000000000000	
7.11163500000000	5.24884400000000	192.48608999999999	-5.41702600000000	0.31799600000000	0.00000000000000	0.09164500000000	-65.86301300000000	703.39017300000000	-40.85210900000000	0.06847300000000	0.00000000000000	-0.09315900000000	0.00000000000000	-5.04521900000000	0.00000000000000	0.00000000000000	-17.47259200000000	0.00000000000000	
7.11330800000000	6.43469200000000	200.89726700000000	-4.88381900000000	0.31916400000000	0.00000000000000	0.09188300000000	-66.55498000000000	697.01337300000000	-39.93404000000000	0.06774800000000	0.00000000000000	-0.09294000000000	0.00000000000000	-4.91135000000000	0.00000000000000	0.00000000000000	-17.45742800000000	0.00000000000000	
